# File created by Blade
# Date/Time:  Tue Sep 30 19:06:46 2014
#---------------------------------------------------------
:version 1.10
:name HOM
:units
  mass 1.0
  length 1.000000
  angle deg
:documentation
     Acclaim Skeleton File
:root
   axis xyz
   order TX TY TZ RX RY RZ
   position 0.000000 0.000000 0.000000
   orientation 0 0 0
:bonedata
   begin
      id 1
      name Spine_dum
      direction 0.000000 1.000000 0.000000
      length 7.508948
      axis 0.0 0.0 0.0 xyz
   end
   begin
      id 2
      name LeftUpLeg_dum
      direction 1.000000 0.000000 0.000000
      length 3.000560
      axis 0.0 0.0 0.0 xyz
   end
   begin
      id 3
      name RightUpLeg_dum
      direction -1.000000 0.000000 0.000000
      length 3.000560
      axis 0.0 0.0 0.0 xyz
   end
   begin
      id 4
      name Spine
      direction 0.000000 1.000000 0.000000
      length 0.000000
      axis 0.0 0.0 0.0 xyz
      dof rx ry rz
   end
   begin
      id 5
      name Spine_dum1
      direction 0.000000 1.000000 0.000000
      length 13.861154
      axis 0.0 0.0 0.0 xyz
   end
   begin
      id 6
      name Spine_dum2
      direction 0.000000 1.000000 0.000000
      length 8.204781
      axis 0.0 0.0 0.0 xyz
   end
   begin
      id 7
      name Spine_dum3
      direction 0.000000 1.000000 0.000000
      length 8.204781
      axis 0.0 0.0 0.0 xyz
   end
   begin
      id 8
      name Head
      direction 0.000000 1.000000 0.000000
      length 4.527550
      axis 0.0 0.0 0.0 xyz
      dof rx ry rz
   end
   begin
      id 9
      name LeftShoulder
      direction 1.000000 0.000000 0.000000
      length 6.635956
      axis 0.0 0.0 -90.0 xyz
      dof rx ry rz
   end
   begin
      id 10
      name LeftArm
      direction 1.000000 0.000000 0.000000
      length 10.274218
      axis 0.0 0.0 -90.0 xyz
      dof rx ry rz
   end
   begin
      id 11
      name LeftForeArm
      direction 1.000000 0.000000 0.000000
      length 8.522147
      axis 0.0 0.0 -90.0 xyz
      dof ry rz rx
   end
   begin
      id 12
      name LeftHand
      direction 0.000000 0.000000 0.000000
      length 0.000000
      axis 0.0 0.0 -90.0 xyz
      dof rx ry rz
   end
   begin
      id 13
      name LeftHand_dum1
      direction 0.000000 0.000000 0.000000
      length 0.000000
      axis 0.0 0.0 -90.0 xyz
   end
   begin
      id 14
      name LeftHand_dum2
      direction 1.000000 0.000000 0.000000
      length 3.937000
      axis 0.0 0.0 -90.0 xyz
   end
   begin
      id 15
      name LeftHandThumb1
      direction 0.000000 0.000000 1.000000
      length 3.937000
      axis 0.0 0.0 -90.0 xyz
      dof rx rz ry
   end
   begin
      id 16
      name RightShoulder
      direction -1.000000 0.000000 0.000000
      length 6.635956
      axis 0.0 0.0 90.0 xyz
      dof rx ry rz
   end
   begin
      id 17
      name RightArm
      direction -1.000000 0.000000 0.000000
      length 10.274218
      axis 0.0 0.0 90.0 xyz
      dof rx ry rz
   end
   begin
      id 18
      name RightForeArm
      direction -1.000000 0.000000 0.000000
      length 8.522147
      axis 0.0 0.0 90.0 xyz
      dof ry rz rx
   end
   begin
      id 19
      name RightHand
      direction 0.000000 0.000000 0.000000
      length 0.000000
      axis 0.0 0.0 90.0 xyz
      dof rx ry rz
   end
   begin
      id 20
      name RightHand_dum1
      direction 0.000000 0.000000 0.000000
      length 0.000000
      axis 0.0 0.0 90.0 xyz
   end
   begin
      id 21
      name RightHand_dum2
      direction -1.000000 0.000000 0.000000
      length 3.937000
      axis 0.0 0.0 90.0 xyz
   end
   begin
      id 22
      name RightHandThumb1
      direction 0.000000 0.000000 1.000000
      length 3.937000
      axis 0.0 0.0 90.0 xyz
      dof rx rz ry
   end
   begin
      id 23
      name LeftUpLeg
      direction 0.000000 -1.000000 0.000000
      length 16.490845
      axis 0.0 0.0 0.0 xyz
      dof rx ry rz
   end
   begin
      id 24
      name LeftLeg
      direction 0.000000 -1.000000 0.000000
      length 14.556576
      axis 0.0 0.0 0.0 xyz
      dof rx ry rz
   end
   begin
      id 25
      name LeftFoot
      direction 0.000000 -0.258819 0.965926
      length 4.831116
      axis 15.0 0.0 0.0 xyz
      dof rx ry rz
   end
   begin
      id 26
      name LeftToeBase
      direction 0.000000 0.000000 1.000000
      length 2.952750
      axis 0.0 0.0 0.0 xyz
      dof rx ry rz
   end
   begin
      id 27
      name RightUpLeg
      direction 0.000000 -1.000000 0.000000
      length 16.490845
      axis 0.0 0.0 0.0 xyz
      dof rx ry rz
   end
   begin
      id 28
      name RightLeg
      direction 0.000000 -1.000000 0.000000
      length 14.556576
      axis 0.0 0.0 0.0 xyz
      dof rx ry rz
   end
   begin
      id 29
      name RightFoot
      direction 0.000000 -0.258819 0.965926
      length 4.831116
      axis 15.0 0.0 0.0 xyz
      dof rx ry rz
   end
   begin
      id 30
      name RightToeBase
      direction 0.000000 0.000000 1.000000
      length 2.952750
      axis 0.0 0.0 0.0 xyz
      dof rx ry rz
   end
:hierarchy
   begin
      root Spine_dum LeftUpLeg_dum RightUpLeg_dum
      Spine_dum Spine
      LeftUpLeg_dum LeftUpLeg
      RightUpLeg_dum RightUpLeg
      Spine Spine_dum1 Spine_dum2 Spine_dum3
      Spine_dum1 Head
      Spine_dum2 LeftShoulder
      Spine_dum3 RightShoulder
      LeftShoulder LeftArm
      LeftArm LeftForeArm
      LeftForeArm LeftHand
      LeftHand LeftHand_dum1 LeftHand_dum2
      LeftHand_dum1 LeftHandThumb1
      RightShoulder RightArm
      RightArm RightForeArm
      RightForeArm RightHand
      RightHand RightHand_dum1 RightHand_dum2
      RightHand_dum1 RightHandThumb1
      LeftUpLeg LeftLeg
      LeftLeg LeftFoot
      LeftFoot LeftToeBase
      RightUpLeg RightLeg
      RightLeg RightFoot
      RightFoot RightToeBase
   end

# File created by Blade
# Date/Time:  Thu Sep 25 18:58:07 2014
# Frame Rate: 120.000 fps
#------------------------------------------------------
:FULLY-SPECIFIED
:DEGREES
488
root -0.358435 32.707996 1.183803 6.566885 51.606020 1.988472
Spine -8.786258 18.321635 -0.034739
Head -6.064700 18.912198 2.089134
LeftShoulder -13.515719 15.916643 24.134531
LeftArm 15.249955 -19.595152 -26.249871
LeftForeArm 14.016413 0.000000 13.892814
LeftHand -23.586141 -0.000000 -11.722268
LeftHandThumb1 -26.253704 0.000000 33.147579
RightShoulder -13.059738 19.719908 -37.304904
RightArm -9.291804 5.037075 34.134792
RightForeArm -28.897849 -0.000000 11.848795
RightHand -11.819796 -0.000000 12.797193
RightHandThumb1 -24.326973 -0.000000 -32.862282
LeftUpLeg -13.611237 -12.821957 7.822425
LeftLeg 0.877769 -0.000000 -0.000000
LeftFoot 11.221545 -27.380990 -22.114792
LeftToeBase 9.300400 -0.000000 -0.000000
RightUpLeg 4.821395 -26.620486 0.055582
RightLeg 3.554835 -0.000000 -0.000000
RightFoot -16.854758 -30.459192 13.938857
RightToeBase 0.608836 -0.000000 -0.000000
489
root -0.367442 32.704548 1.178860 6.482260 52.062913 1.911624
Spine -8.800615 18.883299 -0.040309
Head -5.911059 19.632728 2.142442
LeftShoulder -13.713164 16.090588 24.104779
LeftArm 15.145353 -19.483043 -26.239605
LeftForeArm 13.928955 -0.000000 13.884544
LeftHand -23.457982 -0.000000 -11.668290
LeftHandThumb1 -26.253704 0.000000 33.147579
RightShoulder -12.913672 19.826500 -37.195938
RightArm -9.199109 4.870674 34.104669
RightForeArm -28.837464 -0.000000 11.726675
RightHand -11.871083 -0.000000 12.752414
RightHandThumb1 -24.326973 -0.000000 -32.862282
LeftUpLeg -13.761817 -13.019644 7.890903
LeftLeg 0.998092 -0.000000 -0.000000
LeftFoot 11.361876 -27.605129 -22.201591
LeftToeBase 9.326808 -0.000000 -0.000000
RightUpLeg 4.794807 -26.899782 0.157294
RightLeg 3.698737 -0.000000 -0.000000
RightFoot -16.971387 -30.578227 14.028193
RightToeBase 0.645403 -0.000000 -0.000000
490
root -0.377194 32.702165 1.170124 6.432166 52.518486 1.853263
Spine -8.840182 19.454268 -0.059742
Head -5.737083 20.288239 2.195224
LeftShoulder -13.847359 16.270733 24.069791
LeftArm 14.969076 -19.320136 -26.183948
LeftForeArm 13.918527 -0.000000 13.895618
LeftHand -23.439587 0.000000 -11.617797
LeftHandThumb1 -26.253704 0.000000 33.147579
RightShoulder -12.767467 19.870074 -37.108403
RightArm -9.124129 4.779885 34.107539
RightForeArm -28.852542 0.000000 11.730524
RightHand -12.114439 0.000000 12.678564
RightHandThumb1 -24.326973 -0.000000 -32.862282
LeftUpLeg -13.943041 -13.224148 7.949065
LeftLeg 1.135106 -0.000000 -0.000000
LeftFoot 11.473623 -27.803818 -22.248798
LeftToeBase 9.343335 -0.000000 -0.000000
RightUpLeg 4.741955 -27.179101 0.256397
RightLeg 3.847054 -0.000000 -0.000000
RightFoot -17.108165 -30.702537 14.230668
RightToeBase 0.541556 -0.000000 -0.000000
491
root -0.384418 32.699082 1.162650 6.370565 52.948594 1.787922
Spine -8.872259 20.034539 -0.082274
Head -5.537124 20.966308 2.285150
LeftShoulder -14.073668 16.529178 23.991957
LeftArm 14.923084 -19.201127 -26.129014
LeftForeArm 13.857163 0.000000 13.888997
LeftHand -23.427881 -0.000000 -11.516452
LeftHandThumb1 -26.253704 0.000000 33.147579
RightShoulder -12.650814 19.888093 -37.000955
RightArm -8.966039 4.875536 34.097902
RightForeArm -28.958042 -0.000000 11.712438
RightHand -12.505823 -0.000000 12.714214
RightHandThumb1 -24.326973 -0.000000 -32.862282
LeftUpLeg -14.106143 -13.406451 8.007212
LeftLeg 1.259583 -0.000000 -0.000000
LeftFoot 11.572743 -28.035155 -22.252122
LeftToeBase 9.354477 -0.000000 -0.000000
RightUpLeg 4.688765 -27.405177 0.355172
RightLeg 4.000247 -0.000000 -0.000000
RightFoot -17.198676 -30.872083 14.235865
RightToeBase 0.585736 -0.000000 -0.000000
492
root -0.390141 32.694801 1.156755 6.298065 53.396015 1.712367
Spine -8.936799 20.645774 -0.113058
Head -5.310909 21.574962 2.431053
LeftShoulder -14.212683 16.714366 23.980141
LeftArm 14.918389 -19.386647 -26.216129
LeftForeArm 14.111618 0.000000 13.786202
LeftHand -23.386672 0.000000 -11.651553
LeftHandThumb1 -26.253704 0.000000 33.147579
RightShoulder -12.555030 19.925270 -36.912947
RightArm -8.912586 4.515084 34.078888
RightForeArm -28.686267 -0.000000 11.718765
RightHand -12.599793 -0.000000 12.638935
RightHandThumb1 -24.326973 -0.000000 -32.862282
LeftUpLeg -14.265535 -13.634592 8.075030
LeftLeg 1.397710 -0.000000 -0.000000
LeftFoot 11.635552 -28.198000 -22.311904
LeftToeBase 9.390217 -0.000000 -0.000000
RightUpLeg 4.637889 -27.655631 0.457064
RightLeg 4.166049 -0.000000 -0.000000
RightFoot -17.341151 -31.010703 14.370628
RightToeBase 0.653783 -0.000000 -0.000000
493
root -0.399099 32.690892 1.149197 6.235723 53.901161 1.647174
Spine -8.961889 21.167520 -0.131340
Head -5.151131 22.190682 2.496096
LeftShoulder -14.412011 16.882259 23.933086
LeftArm 14.814538 -19.344408 -26.196009
LeftForeArm 14.230815 -0.000000 13.816690
LeftHand -23.255860 -0.000000 -11.763591
LeftHandThumb1 -26.253704 0.000000 33.147579
RightShoulder -12.549050 20.128614 -36.903934
RightArm -8.833220 4.281613 34.095319
RightForeArm -28.662125 0.000000 11.649372
RightHand -12.426081 -0.000000 12.557699
RightHandThumb1 -24.326973 -0.000000 -32.862282
LeftUpLeg -14.460000 -13.916627 8.158602
LeftLeg 1.521743 -0.000000 -0.000000
LeftFoot 11.764455 -28.432174 -22.341625
LeftToeBase 9.376829 -0.000000 -0.000000
RightUpLeg 4.593247 -27.958149 0.558854
RightLeg 4.311573 -0.000000 -0.000000
RightFoot -17.440944 -31.175196 14.433636
RightToeBase 0.626714 -0.000000 -0.000000
494
root -0.399479 32.686692 1.143705 6.170419 54.361138 1.578186
Spine -9.054030 21.776319 -0.171227
Head -4.852961 22.837376 2.631227
LeftShoulder -14.526635 17.019872 23.925879
LeftArm 14.724571 -19.132971 -26.119108
LeftForeArm 14.070903 -0.000000 13.735088
LeftHand -23.309986 0.000000 -11.631909
LeftHandThumb1 -26.253704 0.000000 33.147579
RightShoulder -12.451520 20.045054 -36.817821
RightArm -8.749725 4.278192 34.080703
RightForeArm -28.696618 0.000000 11.643088
RightHand -12.086110 -0.000000 12.683877
RightHandThumb1 -24.326973 -0.000000 -32.862282
LeftUpLeg -14.612948 -14.189098 8.229472
LeftLeg 1.627569 -0.000000 -0.000000
LeftFoot 11.812023 -28.613962 -22.320290
LeftToeBase 9.346225 -0.000000 -0.000000
RightUpLeg 4.567478 -28.233788 0.638070
RightLeg 4.451255 -0.000000 -0.000000
RightFoot -17.567239 -31.301628 14.597135
RightToeBase 0.591517 -0.000000 -0.000000
495
root -0.409340 32.681737 1.136341 6.086863 54.805963 1.475991
Spine -9.095860 22.380993 -0.175949
Head -4.656820 23.436671 2.710713
LeftShoulder -14.668035 17.136390 23.911782
LeftArm 14.559444 -19.124034 -26.141230
LeftForeArm 13.974164 -0.000000 13.820866
LeftHand -22.932458 0.000000 -11.647318
LeftHandThumb1 -26.253704 0.000000 33.147579
RightShoulder -12.257018 20.080942 -36.731936
RightArm -8.884979 4.276943 34.000394
RightForeArm -28.675665 -0.000000 11.769067
RightHand -11.944535 -0.000000 12.804516
RightHandThumb1 -24.326973 -0.000000 -32.862282
LeftUpLeg -14.793808 -14.436118 8.331016
LeftLeg 1.741832 -0.000000 -0.000000
LeftFoot 11.905752 -28.786731 -22.424668
LeftToeBase 9.375550 -0.000000 -0.000000
RightUpLeg 4.482687 -28.446020 0.768094
RightLeg 4.638777 -0.000000 -0.000000
RightFoot -17.694118 -31.480574 14.665479
RightToeBase 0.635314 -0.000000 -0.000000
496
root -0.410665 32.676869 1.128998 5.988685 55.348496 1.388584
Spine -9.152333 22.865626 -0.143557
Head -4.366370 23.956613 2.788481
LeftShoulder -14.927118 17.433631 23.788789
LeftArm 14.689878 -19.322755 -26.215275
LeftForeArm 14.001516 0.000000 13.756682
LeftHand -23.353604 -0.000000 -11.474235
LeftHandThumb1 -26.253704 0.000000 33.147579
RightShoulder -12.130942 20.099541 -36.728791
RightArm -8.880592 4.373834 34.009986
RightForeArm -28.780847 0.000000 11.798921
RightHand -12.199215 -0.000000 12.860999
RightHandThumb1 -24.326973 -0.000000 -32.862282
LeftUpLeg -14.966172 -14.827432 8.430672
LeftLeg 1.867858 -0.000000 -0.000000
LeftFoot 12.011254 -28.935387 -22.513175
LeftToeBase 9.296431 -0.000000 -0.000000
RightUpLeg 4.461038 -28.843939 0.849751
RightLeg 4.810038 -0.000000 -0.000000
RightFoot -17.789651 -31.563607 14.742025
RightToeBase 0.610883 -0.000000 -0.000000
497
root -0.418977 32.670991 1.127475 5.891082 55.832825 1.257883
Spine -9.266978 23.429452 -0.156565
Head -4.044419 24.420129 2.929692
LeftShoulder -15.078931 17.567808 23.795996
LeftArm 14.623719 -19.416605 -26.275056
LeftForeArm 14.010001 -0.000000 13.745067
LeftHand -23.393309 0.000000 -11.374718
LeftHandThumb1 -26.253704 0.000000 33.147579
RightShoulder -12.072333 20.121858 -36.714868
RightArm -8.858648 4.492571 34.013623
RightForeArm -28.949338 0.000000 11.856556
RightHand -12.072184 -0.000000 13.089948
RightHandThumb1 -24.326973 -0.000000 -32.862282
LeftUpLeg -15.159077 -15.085737 8.558246
LeftLeg 1.981786 -0.000000 -0.000000
LeftFoot 12.067191 -29.193993 -22.528280
LeftToeBase 9.263705 -0.000000 -0.000000
RightUpLeg 4.370644 -29.125493 1.009660
RightLeg 4.984996 -0.000000 -0.000000
RightFoot -17.878975 -31.769211 14.764863
RightToeBase 0.577161 -0.000000 -0.000000
